<?xml version="1.0" encoding="UTF-8" standalone="no"?>
<!-- Created with Inkscape (http://www.inkscape.org/) -->

<svg
   version="1.1"
   id="svg1"
   width="1280"
   height="640"
   viewBox="0 0 1280 639.99999"
   sodipodi:docname="Oasis Logo 1280x640.svg"
   xml:space="preserve"
   inkscape:version="1.4.2 (ebf0e940d0, 2025-05-08)"
   inkscape:export-filename="../Oasis Logo Full.png"
   inkscape:export-xdpi="96"
   inkscape:export-ydpi="96"
   xmlns:inkscape="http://www.inkscape.org/namespaces/inkscape"
   xmlns:sodipodi="http://sodipodi.sourceforge.net/DTD/sodipodi-0.dtd"
   xmlns:xlink="http://www.w3.org/1999/xlink"
   xmlns="http://www.w3.org/2000/svg"
   xmlns:svg="http://www.w3.org/2000/svg"><defs
     id="defs1"><linearGradient
       id="linearGradient18"
       inkscape:collect="always"><stop
         style="stop-color:#f0e68c;stop-opacity:1;"
         offset="0"
         id="stop18" /><stop
         style="stop-color:#f0e68c;stop-opacity:0;"
         offset="1"
         id="stop19" /></linearGradient><rect
       x="944"
       y="652"
       width="96"
       height="84"
       id="rect18" /><rect
       x="-285.67114"
       y="569.92804"
       width="70.710678"
       height="73.539108"
       id="rect17" /><rect
       x="-444.06305"
       y="465.27625"
       width="210.71782"
       height="200.81831"
       id="rect16" /><linearGradient
       id="swatch13"
       inkscape:swatch="solid"><stop
         style="stop-color:#dac878;stop-opacity:1;"
         offset="0"
         id="stop13" /></linearGradient><linearGradient
       id="linearGradient9"
       inkscape:collect="always"><stop
         style="stop-color:#b1d255;stop-opacity:1;"
         offset="0"
         id="stop9" /><stop
         style="stop-color:#84c5a9;stop-opacity:1;"
         offset="0.59500557"
         id="stop11" /><stop
         style="stop-color:#58b8fd;stop-opacity:1;"
         offset="1"
         id="stop10" /></linearGradient><clipPath
       clipPathUnits="userSpaceOnUse"
       id="clipPath3"><path
         id="path3"
         style="fill:#ff0000;fill-opacity:1;fill-rule:nonzero;stroke:none"
         d="m 195.0957,237 v 753.85742 h 751.95118 c -19.32075,-34.61145 -77.78317,-85.74354 -33.2793,-85.28711 4.61825,0.0474 10.34518,0.65021 17.33984,1.88477 12.48329,2.2033 24.96773,4.38476 37.45508,6.56445 7.73994,1.60743 15.4882,3.14298 23.27148,4.49805 V 237 Z" /></clipPath><linearGradient
       inkscape:collect="always"
       xlink:href="#linearGradient9"
       id="linearGradient10"
       x1="482.07315"
       y1="211.76547"
       x2="482.07315"
       y2="785.72168"
       gradientUnits="userSpaceOnUse"
       gradientTransform="translate(25.926791,0.39370282)" /><linearGradient
       inkscape:collect="always"
       xlink:href="#linearGradient18"
       id="linearGradient19"
       x1="944.552"
       y1="658.55652"
       x2="964.784"
       y2="658.55652"
       gradientUnits="userSpaceOnUse" /></defs><sodipodi:namedview
     id="namedview1"
     pagecolor="#505050"
     bordercolor="#ffffff"
     borderopacity="1"
     inkscape:showpageshadow="0"
     inkscape:pageopacity="0"
     inkscape:pagecheckerboard="1"
     inkscape:deskcolor="#505050"
     showgrid="false"
     showguides="true"
     inkscape:zoom="0.35355339"
     inkscape:cx="742.46212"
     inkscape:cy="-1.4142136"
     inkscape:window-width="2544"
     inkscape:window-height="1389"
     inkscape:window-x="0"
     inkscape:window-y="0"
     inkscape:window-maximized="1"
     inkscape:current-layer="svg1"><inkscape:grid
       id="grid16"
       units="px"
       originx="-221.02185"
       originy="-250.25635"
       spacingx="1"
       spacingy="1"
       empcolor="#0099e5"
       empopacity="0.30196078"
       color="#0099e5"
       opacity="0.14901961"
       empspacing="5"
       enabled="true"
       visible="false" /></sodipodi:namedview><g
     id="g2"
     inkscape:label="Oasis"
     transform="matrix(0.97101087,0,0,0.92295092,13.884168,50.118554)"><g
       inkscape:groupmode="layer"
       id="layer4"
       inkscape:label="Title"
       transform="translate(-221.02184,-250.25635)"><text
         xml:space="preserve"
         id="text18"
         style="font-style:normal;font-variant:normal;font-weight:600;font-stretch:normal;font-family:Comfortaa;-inkscape-font-specification:'Comfortaa Semi-Bold';text-align:start;letter-spacing:-0.705644px;writing-mode:lr-tb;direction:ltr;white-space:pre;shape-inside:url(#rect18);display:inline;opacity:1;fill:#ede8af;fill-opacity:1;stroke:none;stroke-width:0;stroke-dasharray:none;stroke-opacity:1"
         transform="matrix(33.538863,0,0,30.609821,-30937.744,-19551.383)"><tspan
           x="944"
           y="662.98161"
           id="tspan4"><tspan
             style="font-weight:300;font-size:12px;-inkscape-font-specification:'Comfortaa, Light'"
             id="tspan3">asis</tspan></tspan></text></g><g
       id="g18"
       inkscape:label="Logo"
       transform="matrix(0.79308308,0,0,0.76852627,-115.89171,-101.81891)"><g
         inkscape:groupmode="layer"
         inkscape:label="Outside"
         id="g1"
         transform="translate(0,12.862655)"><path
           id="path1"
           style="fill:url(#linearGradient10)"
           d="m 439.79007,237.3937 c -1.92299,0 -6.16618,0.47274 -9.42969,1.05078 -36.72165,6.5042 -64.04494,33.6765 -71.40039,71.00586 l -1.0957,5.55664 -8.72266,-8.61523 c -18.17811,-17.95453 -38.59378,-25.98841 -62.69531,-24.66993 -6.06078,0.33157 -13.71953,1.31008 -17.01953,2.17383 -7.85213,2.05525 -17.50766,5.5743 -17.47266,6.36914 0.0152,0.34544 4.69012,2.12682 10.38868,3.95703 5.69856,1.83023 15.85856,5.99274 22.57812,9.25 6.71955,3.25728 12.62825,5.92188 13.13086,5.92188 0.50261,0 2.7492,-1.15756 4.99023,-2.57227 2.24104,-1.4147 4.19961,-2.4272 4.35352,-2.25 0.15391,0.17721 -0.0323,2.6812 -0.41406,5.56446 l -0.69336,5.24219 7.56836,5.02929 c 7.37656,4.89996 12.0734,8.45962 12.0664,9.14649 -0.002,0.18684 -6.18943,0.35876 -13.75,0.38086 -16.89433,0.0495 -27.08614,2.35448 -41.74609,9.4414 -19.83191,9.58715 -36.13807,25.50922 -45.91016,44.83008 -5.49743,10.86923 -6.13299,10.64641 10.23633,3.58008 8.07039,-3.48384 20.52383,-7.96054 27.67383,-9.94922 7.15,-1.98869 13.48022,-3.75635 14.06641,-3.92774 0.58619,-0.17137 1.66905,-2.83292 2.4082,-5.91406 0.73916,-3.08114 1.6109,-5.58731 1.93555,-5.57031 0.32466,0.017 2.1053,2.04201 3.95703,4.5 3.76022,4.99131 3.44284,4.93042 16.38281,3.0957 4.69971,-0.66682 8.56554,-0.96979 8.74414,-0.69336 l 0.002,0.002 c 0.002,0.003 0.003,0.009 0.004,0.0117 1.2e-4,0.001 0,0.005 0,0.006 0,0.31174 -3.10531,2.93583 -6.90039,5.83008 -18.42906,14.05458 -31.07929,32.43154 -37.66602,54.7168 -3.18858,10.78809 -4.36712,30.53205 -2.52734,42.35742 1.43697,9.23632 4.15818,19.14258 5.25781,19.14258 0.45983,0 0.83594,-0.50543 0.83594,-1.12305 0,-0.61762 2.85403,-7.05759 6.3418,-14.31054 5.90927,-12.28856 12.96428,-23.92359 19.89453,-32.8086 l 2.91797,-3.74023 -2.57618,-5.62891 c -1.41773,-3.09653 -2.57826,-5.98502 -2.57826,-6.41814 0,-0.43312 2.69351,0.0284 5.98633,1.02539 l 5.98828,1.8125 4.13867,-4.94336 c 2.25904,-2.69817 4.27304,-4.74971 4.5,-4.58593 l 0.002,0.002 0.002,0.002 c 0.2003,0.20031 -1.42596,5.69237 -3.61328,12.20313 -23.83649,70.95123 -13.29581,153.1429 27.61914,215.36328 43.29931,65.84631 111.44904,106.0154 190.29492,112.16406 13.37092,1.04271 37.15827,0.30218 52.08203,-1.62109 29.91719,-3.85551 61.14838,-14.08995 87.45898,-28.66016 36.10397,-19.99356 69.15637,-51.50132 91.0254,-86.77148 18.13729,-29.25167 31.70815,-68.79887 35.50195,-103.46094 1.41103,-12.89204 1.42224,-45.63336 0.0195,-57.09375 C 783.88575,400.71348 734.99153,329.89608 661.92679,291.60268 606.07717,262.33177 536.95281,255.85162 475.00491,274.07925 l -5.57812,1.64062 7.90234,1.35352 c 10.9511,1.87562 24.78768,6.65102 33.06641,11.41211 l 6.9668,4.00781 15.20312,-1.10938 c 57.8158,-4.2176 115.81904,15.36112 160.86133,54.29883 74.21587,64.15739 96.48467,171.98588 53.99219,261.44141 -12.30443,25.90341 -17.80938,32.37574 -35.32227,41.53125 -17.40639,9.09983 -34.81746,13.49818 -57.14258,14.43359 -28.36879,1.18865 -55.06369,-4.22189 -92.60156,-18.76758 -42.63435,-16.52054 -69.6471,-22.3472 -103.42578,-22.3125 -32.4122,0.0333 -62.33121,6.5617 -91.72461,20.01758 -1.7888,0.81889 -12.22888,-15.69356 -20.31641,-32.13281 -30.16072,-61.30666 -30.53298,-133.36849 -1.00195,-194.05273 7.09497,-14.57969 21.2297,-36.87633 25.51367,-40.2461 3.90486,-3.07157 19.12614,-4.72778 41.5293,-4.51953 10.725,0.0997 22.57571,0.58679 26.33594,1.08203 l 6.83789,0.90039 3.34375,-4.96679 3.34375,-4.96485 1.59765,3.82617 c 0.87909,2.10397 1.83446,4.75832 2.1211,5.90039 0.43589,1.73671 2.68084,2.62426 13.7207,5.41602 12.33312,3.11879 24.35832,7.39979 37.91406,13.49805 l 5.71485,2.57031 -0.91602,-2.41016 c -5.87379,-15.44922 -21.6283,-34.14486 -37.33789,-44.31054 -11.71061,-7.57795 -21.3223,-11.09964 -40.57031,-14.86524 -3.60679,-0.70562 -1.64337,-1.84483 9.39453,-5.45312 5.5,-1.79794 10.28768,-3.6948 10.63867,-4.21485 0.35098,-0.52006 0.93771,-3.20821 1.30469,-5.97461 l 0.66797,-5.03125 4.69336,4.55274 4.69531,4.55273 8.67188,-1.79492 c 12.07159,-2.49679 26.90963,-3.98705 40.11718,-4.03125 l 11.21094,-0.0371 -4,-3.5 c -11.1942,-9.79413 -27.12285,-18.21568 -41.5,-21.9414 -14.86268,-3.85155 -34.58054,-3.63018 -49.94336,0.5625 -8.41289,2.29597 -25.67225,10.28351 -31.04492,14.36718 -1.91895,1.45855 -3.63204,2.22301 -3.80664,1.69922 -0.1746,-0.52379 1.73223,-5.07197 4.23828,-10.10742 2.50605,-5.03545 4.55664,-9.28508 4.55664,-9.44336 0,-0.15829 -1.34437,-1.97877 -2.98633,-4.04492 -1.64197,-2.06615 -2.70853,-4.20206 -2.37109,-4.74805 0.3557,-0.57554 2.56047,-0.73516 5.24609,-0.37891 l 4.63281,0.61524 5.37696,-8.13086 c 6.67654,-10.0946 18.39272,-24.25661 24.13281,-29.16992 l 4.32813,-3.70509 z m 14.07031,411.27539 c 32.5461,0.89844 51.61853,5.20151 89.66797,20.23047 32.31936,12.76567 49.01152,17.35791 74.37305,20.45898 14.26971,1.74482 40.92651,1.29488 54.49023,-0.91796 6.58046,-1.07359 12.11072,-1.8053 12.28907,-1.62696 0.43163,0.43164 -17.1776,11.77706 -22.25391,14.33789 -4.93559,2.48985 -16.78763,4.94852 -30,6.22461 -34.22347,3.30543 -66.91486,-2.08454 -108.17188,-17.83594 -34.76638,-13.27336 -46.13725,-15.93196 -71.82812,-16.7871 -18.39936,-0.61244 -30.11634,0.6578 -44.19727,4.78906 l -7.19921,2.11133 -6.47852,-5.6875 c -3.56364,-3.1287 -8.09684,-7.66305 -10.07422,-10.07618 l -3.5957,-4.38867 9.27148,-2.96484 c 20.50912,-6.56035 37.05185,-8.603 63.70703,-7.86719 z"
           inkscape:label="Circle Palm" /></g><g
         inkscape:groupmode="layer"
         id="layer3"
         inkscape:label="Inner"
         style="display:none"><g
           id="g16"
           transform="matrix(0.39547772,0,0,0.44162486,318.22037,-194.63473)"
           inkscape:label="Terminal Icon"
           style="fill:#f0e68c;fill-opacity:1;stroke:#f0e68c;stroke-opacity:1"><rect
             style="fill:#f0e68c;fill-opacity:1;stroke:#f0e68c;stroke-width:21.3055;stroke-dasharray:none;stroke-opacity:1"
             id="rect13-6"
             width="36.230011"
             height="252.85849"
             x="1714.6742"
             y="-829.58844"
             transform="matrix(-0.00677905,0.99997702,-0.99999583,0.0028876,0,0)"
             inkscape:label="Rectangle"
             ry="5.0332651" /><g
             id="g15"
             transform="matrix(0.63130608,0,0,0.52092002,-937.51208,583.77052)"
             inkscape:label="Chevron"
             style="fill:#f0e68c;fill-opacity:1;stroke:#f0e68c;stroke-opacity:1"><rect
               style="fill:#f0e68c;fill-opacity:1;stroke:#f0e68c;stroke-width:29.726;stroke-dasharray:none;stroke-opacity:1"
               id="rect13-7"
               width="66.650055"
               height="416.56287"
               x="217.35577"
               y="2625.3796"
               transform="rotate(-45)"
               inkscape:label="Top"
               ry="8.3312569" /><rect
               style="fill:#f0e68c;fill-opacity:1;stroke:#f0e68c;stroke-width:29.726;stroke-dasharray:none;stroke-opacity:1"
               id="rect13-7-5"
               width="66.650055"
               height="416.56287"
               x="2975.3333"
               y="-281.69308"
               transform="rotate(45)"
               inkscape:label="Bottom"
               ry="8.3312569" /></g></g></g></g></g></svg>
